<?xml version="1.0" encoding="UTF-8"?>
<svg id="Layer_2" data-name="Layer 2" xmlns="http://www.w3.org/2000/svg" viewBox="0 0 193.99 188.37">
  <defs>
    <style>
      .cls-1 {
        fill: #fff;
        stroke-width: 0px;
      }
    </style>
  </defs>
  <g id="Layer_1-2" data-name="Layer 1">
    <g>
      <path class="cls-1" d="M170.44,77.98c-2.34,0-3.52,1.53-3.52,3.9s1.18,3.92,3.52,3.92,3.5-1.53,3.5-3.92-1.16-3.9-3.5-3.9Z"/>
      <path class="cls-1" d="M147.55,78.16h-1.76v7.47h1.76c2.2,0,3.94-.18,3.94-3.74s-1.74-3.73-3.94-3.73Z"/>
      <path class="cls-1" d="M108.98,0c-15.46,29.54-43,40.63-78.64,32.42l-2.4,5.22,14.85,2.09,29.76,13.7,9.37-20.36,20.89,9.61-9.37,20.36,10.05,4.63-8.41,18.27-10.05-4.63-7.15,15.53-20.89-9.61,7.15-15.53-48.04-22.11,7.94-17.26C9.08,49.4,0,71.77,0,96.26c0,42.93,27.9,79.35,66.55,92.11-14.34-11.24-20.71-26.75-11.89-45.91l20.89,9.61c-5.11,11.09-1.61,19.66,14.7,27.17,14.75,6.79,22.22,3.27,27.51-8.22,4.51-9.79,1.96-16.97-7.83-21.48-7.7-3.54-15.28-3.23-23.56,1.02l-17.25-24.39,18.08-39.29,70.75,32.56-8.41,18.27-49.86-22.95-6.07,13.18-9.32,9.94,3.17,4.46c11.57-12.07,24.23-14.16,37.15-8.21,16.19,7.45,24.01,24.81,14.28,45.96-.78,1.69-1.6,3.28-2.47,4.78,33.92-15.11,57.56-49.11,57.56-88.64C193.99,46.75,156.89,5.9,108.98,0ZM112.72,88.26c-4.46,0-6.13-1.83-6.13-4.96h2.81c0,1.9.95,2.5,3.41,2.5,1.81,0,2.41-.42,2.41-1.09,0-.9-1.51-1.3-3.32-1.92-2.62-.88-4.75-1.58-4.75-4.01,0-2.11,1.67-3.27,4.87-3.27,3.8,0,5.5,1.93,5.5,4.39h-2.81c0-1.51-1.16-1.93-2.69-1.93-1.27,0-2.06.28-2.06.91,0,.56.3.77,2.28,1.44,2.28.77,5.78,1.76,5.78,4.34,0,2.13-1.49,3.59-5.31,3.59ZM128.83,78.16h-4.04v9.93h-2.81v-9.93h-4.06v-2.46h10.91v2.46ZM141.33,83.48c0,3.09-1.93,4.78-5.61,4.78s-5.59-1.69-5.59-4.78v-7.79h2.81v6.54c0,2.21.19,3.57,2.78,3.57s2.79-1.35,2.79-3.57v-6.54h2.81v7.79ZM147.55,88.09h-4.57v-12.39h4.57c3.3,0,6.75.86,6.75,6.19s-3.44,6.2-6.75,6.2ZM163.51,78.16h-2.81v7.47h2.81v2.46h-8.44v-2.46h2.81v-7.47h-2.81v-2.46h8.44v2.46ZM170.44,88.26c-3.94,0-6.33-2.76-6.33-6.38s2.39-6.36,6.33-6.36,6.31,2.76,6.31,6.36-2.39,6.38-6.31,6.38Z"/>
      <path class="cls-1" d="M80.79.62c-12.67,2.13-24.5,6.72-35,13.25,13.85,1.1,25.86-3.3,35-13.25Z"/>
    </g>
  </g>
</svg>