<?xml version="1.0" encoding="UTF-8"?>
<svg id="Layer_2" data-name="Layer 2" xmlns="http://www.w3.org/2000/svg" viewBox="0 0 109.26 138.86">
  <defs>
    <style>
      .cls-1 {
        fill: #fff;
        stroke-width: 0px;
      }
    </style>
  </defs>
  <g id="Layer_1-2" data-name="Layer 1">
    <g>
      <g>
        <path class="cls-1" d="M9.55,138.86c-6.95,0-9.55-2.85-9.55-7.72h4.38c0,2.96,1.48,3.89,5.31,3.89,2.82,0,3.75-.66,3.75-1.7,0-1.4-2.35-2.03-5.17-2.98-4.08-1.37-7.39-2.46-7.39-6.24,0-3.28,2.6-5.09,7.58-5.09,5.91,0,8.57,3.01,8.57,6.84h-4.38c0-2.35-1.81-3.01-4.19-3.01-1.97,0-3.2.44-3.2,1.42,0,.88.47,1.2,3.56,2.24,3.56,1.2,9,2.74,9,6.76,0,3.31-2.33,5.58-8.27,5.58Z"/>
        <path class="cls-1" d="M34.65,123.12h-6.29v15.46h-4.38v-15.46h-6.32v-3.83h17v3.83Z"/>
        <path class="cls-1" d="M36.68,119.29h4.38v10.18c0,3.45.3,5.56,4.32,5.56s4.35-2.11,4.35-5.56v-10.18h4.38v12.12c0,4.82-3.01,7.44-8.73,7.44s-8.7-2.63-8.7-7.44v-12.12Z"/>
        <path class="cls-1" d="M74.31,128.92c0,8.32-5.36,9.66-10.51,9.66h-7.12v-19.29h7.12c5.15,0,10.51,1.34,10.51,9.63ZM69.93,128.92c0-5.53-2.71-5.8-6.13-5.8h-2.74v11.63h2.74c3.42,0,6.13-.27,6.13-5.83Z"/>
        <path class="cls-1" d="M84.27,123.12v11.63h4.38v3.83h-13.14v-3.83h4.38v-11.63h-4.38v-3.83h13.14v3.83h-4.38Z"/>
        <path class="cls-1" d="M99.43,119.01c6.1,0,9.83,4.3,9.83,9.91s-3.72,9.93-9.83,9.93-9.85-4.3-9.85-9.93,3.72-9.91,9.85-9.91ZM99.43,135.02c3.64,0,5.45-2.38,5.45-6.1s-1.81-6.08-5.45-6.08-5.47,2.38-5.47,6.08,1.83,6.1,5.47,6.1Z"/>
      </g>
      <g>
        <path class="cls-1" d="M4.86,0H0v28.01C5.81,20.29,7.61,10.78,4.86,0Z"/>
        <path class="cls-1" d="M47.79,75.15l16.84,3.89c-2.07,8.94,1.81,14.72,14.96,17.76,11.89,2.75,16.85-.98,19-10.24,1.83-7.89-1.14-12.79-9.04-14.62-6.21-1.44-11.74-.05-17.19,4.34l-16.41-15.32,7.32-31.67,45.99,10.64V0H22.52c3.53,19.52-4.31,36.46-22.52,49.29v4.84l6.69-5.03,23.1-8.54-5.84-15.8,16.21-5.99,5.84,15.8,7.8-2.88,5.24,14.18-7.8,2.88,4.46,12.05-16.21,5.99-4.46-12.05L0,67.69v41.57h68.49c-15.24-5.62-24.73-16.68-20.7-34.11Z"/>
        <path class="cls-1" d="M103,109.26h6.26v-5.48c-1.81,2.26-3.91,4.07-6.26,5.48Z"/>
        <path class="cls-1" d="M74.24,58.54l-5.35,8.74,3.01,2.8c6.67-10.65,15.68-14.11,26.09-11.7,4.37,1.01,8.22,2.99,11.26,5.81v-8.75l-32.56-7.53-2.46,10.63Z"/>
      </g>
    </g>
  </g>
</svg>